<?xml version="1.0" standalone="no"?>
<!DOCTYPE svg PUBLIC "-//W3C//DTD SVG 20010904//EN"
 "http://www.w3.org/TR/2001/REC-SVG-20010904/DTD/svg10.dtd">
<svg version="1.0" xmlns="http://www.w3.org/2000/svg"
 width="1100.000000pt" height="1100.000000pt" viewBox="0 0 1100.000000 1100.000000"
 preserveAspectRatio="xMidYMid meet">
<metadata>
Created by potrace 1.14, written by Peter Selinger 2001-2017
</metadata>
<g transform="translate(0.000000,1100.000000) scale(0.100000,-0.100000)"
fill="#000000" stroke="none">
<path d="M0 5500 l0 -5500 5500 0 5500 0 0 5500 0 5500 -5500 0 -5500 0 0
-5500z m6775 2869 c5 -5 22 -9 39 -9 41 0 140 -28 203 -56 28 -13 54 -24 57
-24 3 0 33 -19 68 -42 71 -49 168 -143 168 -164 0 -8 4 -14 9 -14 17 0 91
-167 91 -204 0 -12 5 -27 12 -34 17 -17 18 -383 2 -403 -7 -8 -14 -30 -17 -49
-5 -35 -27 -101 -38 -110 -3 -3 -14 -26 -25 -52 -10 -27 -22 -48 -26 -48 -5 0
-8 -4 -8 -9 0 -11 -82 -135 -92 -139 -4 -2 -8 -10 -8 -17 0 -7 -3 -15 -8 -17
-4 -1 -17 -15 -28 -30 -26 -34 -107 -128 -156 -182 -21 -23 -38 -44 -38 -48 0
-5 -7 -8 -15 -8 -8 0 -15 -4 -15 -8 0 -5 -39 -49 -86 -98 -48 -49 -103 -109
-123 -134 -20 -24 -46 -54 -58 -66 -13 -12 -23 -25 -23 -29 0 -4 -10 -17 -22
-29 -31 -29 -119 -138 -115 -142 1 -2 153 -4 337 -5 363 -3 368 -2 392 51 7
16 16 30 20 30 5 0 8 7 8 15 0 8 4 15 10 15 5 0 13 12 16 26 5 18 10 22 17 15
7 -7 7 -18 -3 -36 -14 -27 -5 -49 10 -25 6 8 10 10 10 4 0 -7 9 -14 20 -17 11
-3 19 -11 18 -18 -2 -8 11 -16 32 -19 31 -6 33 -8 15 -16 -17 -7 -12 -10 25
-14 68 -8 72 -22 74 -274 1 -188 -1 -215 -17 -239 -10 -16 -31 -30 -48 -34
-17 -3 -36 -14 -42 -24 -7 -11 -17 -19 -24 -19 -7 0 -13 -5 -13 -10 0 -6 -9
-20 -20 -32 -11 -12 -20 -35 -20 -50 0 -16 -7 -31 -15 -34 -12 -5 -15 -32 -15
-155 0 -82 -4 -149 -8 -149 -16 0 -36 -78 -25 -92 30 -37 133 -237 133 -259 0
-9 3 -19 7 -23 10 -10 42 -136 43 -166 0 -15 5 -31 11 -37 10 -10 27 -433 22
-568 -3 -102 -15 -205 -24 -205 -5 0 -9 -15 -9 -32 0 -43 -33 -188 -42 -188
-5 0 -8 -8 -8 -17 0 -26 -32 -113 -42 -113 -4 0 -8 -7 -8 -16 0 -22 -72 -155
-128 -234 -25 -36 -84 -103 -132 -150 -86 -85 -244 -200 -274 -200 -9 0 -16
-3 -16 -8 0 -8 -73 -42 -90 -42 -6 0 -10 -4 -10 -10 0 -5 -9 -10 -20 -10 -17
0 -66 -18 -112 -41 -10 -5 -27 -9 -39 -9 -11 0 -28 -4 -37 -9 -31 -17 -244
-41 -358 -41 l-111 0 -7 37 c-3 21 -6 133 -6 249 0 157 3 214 13 222 6 5 48
12 92 15 174 11 270 30 363 73 29 13 57 24 62 24 6 0 10 5 10 10 0 6 6 10 14
10 20 0 153 130 161 158 3 12 11 22 16 22 5 0 9 8 9 18 0 9 7 26 15 36 8 11
15 37 15 57 l0 37 -46 -24 c-25 -13 -54 -24 -64 -24 -10 0 -22 -4 -25 -10 -3
-5 -16 -10 -29 -10 -12 0 -28 -6 -35 -13 -9 -9 -65 -12 -206 -12 -145 -1 -197
-4 -209 -14 -11 -9 -16 -10 -16 -2 0 7 -21 11 -55 11 -40 0 -57 4 -61 15 -4 8
-17 15 -31 15 -13 0 -31 7 -39 15 -9 8 -25 15 -37 15 -16 0 -18 -3 -9 -9 11
-7 11 -9 -2 -14 -9 -4 -16 -3 -16 1 0 12 -89 34 -160 39 -36 2 -69 9 -74 14
-6 5 -22 9 -37 9 -15 0 -29 5 -31 11 -3 8 -10 8 -25 -2 -51 -31 -29 20 40 96
15 16 30 38 33 48 3 9 10 17 15 17 5 0 9 5 9 10 0 6 8 19 18 29 35 40 42 51
42 70 0 10 -7 21 -15 25 -8 3 -15 14 -15 25 0 11 -8 39 -18 63 -40 93 -66 257
-66 408 0 108 5 149 30 260 16 68 17 71 58 163 14 32 26 62 26 67 0 6 5 10 10
10 6 0 10 5 10 10 0 37 177 233 249 276 17 10 31 21 31 25 0 4 8 9 18 13 9 3
24 9 32 14 42 26 122 62 135 62 8 0 15 4 15 8 0 4 35 16 79 25 60 14 121 18
270 18 109 -1 191 3 191 8 0 5 6 16 13 23 6 7 21 30 32 51 11 20 23 37 27 37
5 0 8 6 8 13 0 7 11 29 25 49 49 73 79 68 -452 65 l-477 -2 -63 -90 c-35 -49
-67 -95 -73 -102 -5 -7 -10 -17 -10 -23 0 -5 -4 -10 -10 -10 -5 0 -10 -4 -10
-10 0 -11 -62 -103 -72 -108 -5 -2 -8 -10 -8 -18 0 -8 -3 -14 -7 -14 -5 0 -24
-27 -43 -60 -19 -33 -38 -60 -42 -60 -5 0 -8 -7 -8 -15 0 -8 -4 -15 -8 -15 -5
0 -17 -16 -28 -35 -10 -19 -22 -35 -26 -35 -5 0 -8 -7 -8 -15 0 -8 -3 -15 -8
-15 -4 0 -16 -16 -26 -35 -11 -19 -23 -35 -28 -35 -4 0 -8 -4 -8 -10 0 -5 -34
-57 -76 -115 -41 -58 -75 -113 -75 -122 0 -10 5 -45 10 -78 27 -172 33 -270
28 -475 -7 -262 -26 -430 -57 -505 -5 -11 -12 -35 -15 -53 -6 -28 -29 -91 -64
-177 -23 -55 -66 -135 -73 -135 -4 0 -8 -5 -8 -11 0 -28 -144 -197 -228 -267
-37 -32 -68 -60 -70 -64 -2 -5 -8 -8 -13 -8 -6 0 -22 -11 -36 -24 -15 -14 -40
-31 -57 -39 -17 -8 -64 -31 -105 -51 -40 -20 -81 -36 -91 -36 -11 0 -21 -4
-25 -9 -3 -5 -20 -13 -37 -17 -18 -3 -39 -10 -48 -14 -50 -26 -295 -60 -432
-60 l-108 0 0 259 0 259 78 5 c42 2 106 10 142 17 36 7 74 12 85 11 51 -3 275
85 275 109 0 5 6 10 13 10 17 0 81 70 120 133 27 43 67 144 67 171 0 3 -25 -7
-54 -24 -30 -16 -64 -30 -75 -30 -12 0 -21 -4 -21 -8 0 -14 -52 -34 -97 -37
-41 -3 -93 -29 -93 -46 0 -14 -36 -10 -49 5 -7 8 -35 17 -64 19 -91 9 -157 23
-169 35 -7 7 -20 12 -30 12 -10 0 -26 4 -36 9 -9 5 -38 18 -64 28 -27 10 -48
21 -48 26 0 4 -5 7 -10 7 -14 0 -31 14 -103 87 -74 74 -87 89 -87 102 0 5 -4
11 -8 13 -24 10 -122 210 -122 249 0 10 -4 19 -8 19 -5 0 -16 54 -26 119 -27
173 -12 482 23 511 7 6 30 102 40 170 9 55 30 110 42 110 5 0 9 14 9 30 0 17
5 30 10 30 6 0 10 11 10 25 0 14 -5 25 -12 25 -6 0 -2 8 9 18 12 10 22 36 26
66 4 27 11 54 16 60 9 11 -2 187 -14 219 -4 9 -11 17 -16 17 -5 0 -9 7 -9 15
0 8 -4 15 -10 15 -5 0 -12 11 -16 25 -3 14 -11 25 -18 24 -36 -4 -52 15 -18
24 9 3 0 5 -20 6 -62 2 -71 27 -64 168 3 65 6 138 6 163 -2 79 10 118 47 157
19 21 60 67 91 102 32 35 112 119 180 187 67 68 122 127 122 132 0 5 11 19 25
32 14 13 25 29 25 37 0 7 4 13 8 13 5 0 18 17 30 38 11 21 30 48 41 61 12 13
21 30 21 38 0 7 3 13 8 13 4 0 16 17 27 37 11 20 30 47 43 59 12 13 22 30 22
39 0 8 4 15 8 15 4 0 16 15 27 33 10 17 22 34 25 37 4 3 22 29 40 58 17 28 36
52 41 52 5 0 9 6 9 13 0 8 11 24 25 37 14 13 25 27 25 32 0 5 11 21 25 36 14
15 25 31 25 35 0 5 7 15 15 23 13 14 16 14 21 -1 5 -12 13 -7 36 25 16 22 34
40 39 40 5 0 9 5 9 11 0 15 53 99 62 99 4 0 5 -7 2 -15 -4 -8 -2 -15 3 -15 11
0 23 110 19 186 -1 33 -8 58 -19 68 -9 10 -17 25 -17 35 0 45 -98 115 -178
127 -76 11 -144 -12 -206 -70 -29 -28 -57 -61 -61 -73 -3 -13 -11 -23 -16 -23
-5 0 -9 -9 -9 -19 0 -11 -4 -22 -9 -25 -5 -4 -15 -47 -22 -96 -9 -66 -17 -93
-29 -100 -9 -5 -150 -8 -313 -7 -232 0 -300 4 -308 14 -16 18 5 233 22 233 5
0 9 12 9 26 0 32 32 124 42 124 5 0 8 7 8 15 0 17 79 148 92 153 4 2 8 7 8 12
0 11 78 90 90 90 5 0 10 7 10 15 0 8 4 15 8 15 5 0 17 8 28 18 29 26 150 101
202 124 80 36 114 47 172 54 30 3 60 11 67 16 14 11 390 4 463 -9 94 -18 181
-45 232 -73 10 -6 25 -10 33 -10 8 0 15 -3 15 -8 0 -4 24 -22 54 -40 57 -33
161 -139 186 -189 8 -15 18 -30 21 -33 7 -6 32 -62 47 -105 36 -105 69 -344
52 -376 -6 -10 -10 -29 -10 -43 0 -14 -4 -27 -9 -30 -4 -3 -11 -29 -15 -58 -8
-61 -44 -159 -63 -171 -7 -4 -13 -17 -13 -27 0 -11 -4 -20 -10 -20 -5 0 -10
-8 -10 -19 0 -10 -7 -24 -15 -31 -8 -7 -15 -19 -15 -26 0 -8 -4 -14 -10 -14
-5 0 -10 -5 -10 -10 0 -6 -4 -16 -10 -23 -5 -7 -28 -37 -49 -67 -64 -89 -81
-109 -186 -220 -55 -57 -104 -110 -110 -116 -25 -29 -45 -55 -45 -58 0 -2 -56
-88 -125 -190 -69 -103 -125 -191 -125 -196 0 -4 17 -7 38 -7 20 1 216 -2 435
-7 457 -10 421 0 419 -113 0 -35 1 -63 4 -63 2 0 16 19 31 43 15 23 30 44 33
47 16 16 60 80 60 88 0 6 3 12 8 14 10 5 72 97 72 108 0 6 5 10 10 10 6 0 10
6 10 14 0 8 4 16 8 18 10 4 92 128 92 139 0 5 4 9 9 9 5 0 13 10 17 23 4 12 9
24 13 27 14 11 61 79 61 88 0 6 4 12 8 14 7 3 92 126 92 134 0 2 23 35 50 74
28 39 50 75 50 80 0 6 4 10 10 10 5 0 12 11 16 25 3 14 10 25 15 25 5 0 9 7 9
15 0 8 4 15 8 15 5 0 17 16 28 35 10 19 22 35 26 35 5 0 8 5 8 10 0 6 18 35
40 65 22 30 40 59 40 65 0 5 4 10 8 10 5 0 15 11 22 25 7 14 17 25 22 25 5 0
6 -11 2 -25 -6 -23 10 -37 18 -16 2 5 63 12 137 15 74 3 137 9 140 14 7 9 49
29 79 37 12 4 22 11 22 16 0 5 7 9 15 9 8 0 15 7 15 15 0 8 4 15 9 15 5 0 11
10 13 22 4 25 28 37 28 14 0 -9 5 -16 10 -16 6 0 10 8 10 19 0 10 7 36 16 56
11 27 14 57 11 99 -6 69 -28 156 -39 156 -5 0 -8 6 -8 13 0 18 -69 87 -87 87
-7 0 -13 4 -13 8 0 5 -21 14 -47 19 -37 9 -55 8 -80 -2 -18 -8 -33 -10 -33 -5
0 15 -62 -1 -84 -22 -11 -10 -23 -18 -27 -18 -9 0 -81 -98 -96 -130 -15 -33
-33 -124 -33 -164 0 -20 -8 -40 -19 -50 -17 -16 -46 -17 -308 -14 -158 2 -296
7 -305 12 -14 6 -18 21 -18 70 0 57 21 175 40 221 4 11 16 40 25 65 25 70 39
100 46 100 4 0 9 8 13 18 7 23 24 48 61 91 66 77 108 121 116 121 4 0 25 15
45 34 37 34 207 123 276 145 65 21 140 33 243 40 128 8 307 3 320 -10z m-15
-894 c0 -8 -4 -15 -10 -15 -5 0 -10 7 -10 15 0 8 5 15 10 15 6 0 10 -7 10 -15z
m-1173 -3820 c-4 -8 -11 -15 -17 -15 -14 0 -13 27 3 33 16 6 21 1 14 -18z
m-47 -20 c0 -2 -7 -5 -15 -9 -9 -3 -15 0 -15 9 0 9 6 12 15 9 8 -4 15 -7 15
-9z"/>
<path d="M4611 7424 c0 -11 3 -14 6 -6 3 7 2 16 -1 19 -3 4 -6 -2 -5 -13z"/>
<path d="M4128 5680 c-9 -6 -30 -31 -47 -58 -48 -74 -123 -177 -133 -180 -4
-2 -8 -8 -8 -13 0 -6 -5 -15 -10 -22 -36 -42 -98 -143 -90 -145 8 -3 80 46
100 68 10 11 61 30 80 30 11 0 20 5 20 10 0 6 5 10 11 10 6 0 25 6 42 14 81
37 169 49 336 48 170 -2 237 -13 331 -54 25 -11 61 -27 80 -35 19 -8 43 -19
54 -25 13 -7 22 -6 31 4 31 32 225 332 222 342 -5 14 -994 20 -1019 6z"/>
<path d="M4330 4919 c-72 -41 -153 -160 -167 -245 -3 -19 -10 -34 -14 -34 -5
0 -9 -63 -9 -140 0 -87 4 -140 10 -140 6 0 10 -16 10 -35 0 -24 5 -35 15 -35
8 0 15 3 15 8 0 4 18 27 40 50 22 24 40 47 40 50 0 4 14 23 30 42 16 19 30 38
30 42 0 4 6 13 13 20 26 28 127 168 127 177 0 5 3 11 8 13 9 4 62 74 62 83 0
3 11 18 25 33 31 33 32 58 3 73 -13 7 -25 15 -28 18 -35 44 -148 55 -210 20z"/>
<path d="M6365 4829 c-11 -17 1 -21 15 -4 8 9 8 15 2 15 -6 0 -14 -5 -17 -11z"/>
<path d="M6815 4384 c-10 -14 -27 -35 -37 -46 -10 -12 -18 -25 -18 -30 0 -5
-10 -19 -23 -31 -13 -12 -33 -38 -45 -57 -11 -20 -32 -49 -46 -65 -14 -17 -26
-33 -26 -37 0 -4 -7 -14 -17 -23 -15 -16 -12 -16 43 -10 32 4 73 16 89 26 38
22 75 54 75 63 0 4 7 14 15 22 11 12 15 40 15 115 0 54 -1 99 -3 99 -1 0 -11
-12 -22 -26z"/>
<path d="M4298 3563 c7 -3 16 -2 19 1 4 3 -2 6 -13 5 -11 0 -14 -3 -6 -6z"/>
</g>
</svg>
